PathFileType	4	(X/Y/Z)	Patient4_TMGait_0pt4_01_left_44.trc.trc
DataRate	CameraRate	NumFrames	NumMarkers	Units	OrigDataRate	OrigDataStartFrame	OrigNumFrames
70.000000000000	70.000000000000	4	33	mm	70.000000000000	106	       141
Frame#	Time	Sacral			L.Shoulder			Chest			R.Shoulder			Neck			R.ASIS			L.ASIS			R.Thigh.Superior			R.Thigh.Lateral			R.Thigh.Inferior			R.Patella			L.Thigh.Superior			L.Thigh.Lateral			L.Thigh.Inferior			L.Patella			L.Shank.Superior			L.Shank.Lateral			L.Shank.Inferior			R.Shank.Superior			R.Shank.Lateral			R.Shank.Inferior			R.Heel			R.Midfoot.Superior			R.Midfoot.Lateral			R.Toe			L.Heel			L.Midfoot.Lateral			L.Midfoot.Superior			L.Toe			L.Elbow			L.Wrist			R.Elbow			R.Wrist			
		X1	Y1	Z1	X2	Y2	Z2	X3	Y3	Z3	X4	Y4	Z4	X5	Y5	Z5	X6	Y6	Z6	X7	Y7	Z7	X8	Y8	Z8	X9	Y9	Z9	X10	Y10	Z10	X11	Y11	Z11	X12	Y12	Z12	X13	Y13	Z13	X14	Y14	Z14	X15	Y15	Z15	X16	Y16	Z16	X17	Y17	Z17	X18	Y18	Z18	X19	Y19	Z19	X20	Y20	Z20	X21	Y21	Z21	X22	Y22	Z22	X23	Y23	Z23	X24	Y24	Z24	X25	Y25	Z25	X26	Y26	Z26	X27	Y27	Z27	X28	Y28	Z28	X29	Y29	Z29	X30	Y30	Z30	X31	Y31	Z31	X32	Y32	Z32	X33	Y33	Z33	

106	56.920000000000	906.755571847494	1022.590536714039	535.045382854643	1094.890574760457	1439.613142180855	333.595554824538	1208.594375284140	1365.194994724523	484.004036707520	1150.057966719924	1446.398961691981	664.419095651682	1110.972759125793	1503.846236980245	487.873048128681	1142.429219292011	947.709778572849	630.183379172596	1103.148679620013	972.877211169772	358.598759403080	1162.167541957864	741.955936111070	597.722880582724	1072.044068840979	638.838664703111	659.143265008368	1140.711746088207	581.749917553627	576.019012278932	1131.547809942062	495.511973218147	579.953997686038	1183.648093032910	795.224500590782	373.206328875337	1131.904063258914	668.478826872679	294.045146752364	1242.078138248188	608.326655577561	339.370675177202	1259.494591032014	525.367138048627	329.733068883597	1209.095514947209	451.274495760288	327.591414545957	1081.340528150304	374.495914345765	287.977797253292	1108.421718983288	246.419125635111	340.300222846040	1098.017062321585	409.174050057367	583.878561948262	1019.625120613185	309.532848104948	644.504395061352	1053.317166755418	213.638260501481	576.497130769071	903.706921253362	58.033670115649	546.472114398204	1080.744013810905	99.716030368919	575.580804773789	990.396503930060	42.579860854761	615.612872993902	1197.381568156123	38.038761564292	594.038416826388	947.922517460604	130.037983791749	389.583413499505	1008.836643793825	105.571914416167	303.225495283672	1107.812894028421	143.602341613846	318.167922831798	1211.454547268103	59.601287862565	279.271202315299	1001.579243678300	1097.130733828691	224.643171465609	1099.000531504337	854.663421144801	187.027763162237	1163.420673433960	1121.399118352023	827.510987680430	1364.563226981315	965.558043800544	786.790263507835	
107	56.934285714286	905.812406570318	1023.266700739787	536.089748795806	1094.301277577313	1440.539589695598	335.811993929835	1208.673944568169	1364.989540557873	485.167327709684	1151.554823932371	1445.556145068994	666.342154665398	1111.043985492346	1503.979310579142	490.463031436509	1141.715857872391	947.507945423999	630.008928653828	1101.301760930166	973.290809596827	358.635971011512	1159.203287506111	741.514591508961	597.250272337391	1068.746676878315	638.924170305676	659.338443006891	1136.480571405833	581.367345469999	575.989069456779	1126.681960851869	495.479557874497	580.094648494119	1180.981611384445	795.782887740602	372.486521097206	1129.104816436066	668.690534539265	293.807275344158	1239.191901970882	608.925528363357	339.568062313050	1258.053894506773	527.995356349565	329.956210548514	1212.069200357651	453.109345760573	327.493650658730	1090.256004525961	368.052303037096	286.948471758702	1126.183719711560	241.725681186472	338.873285893474	1093.050464587632	409.213451793280	584.051538999618	1014.421367823574	309.735446107076	644.693623613236	1047.946023380352	213.785697534265	576.715619997829	898.036518681890	58.382057659023	546.576766188115	1075.113478550361	99.727079465332	575.649180580475	984.693614394568	42.700570488376	615.724422095379	1191.633988293377	37.975242107335	594.133451491816	974.348187186779	113.780595672356	387.158665780222	1037.211835373965	94.326675015178	300.936491416584	1133.142759894932	139.271323700092	316.370384928482	1242.746992107608	63.356146003517	277.616569037547	997.924829898452	1099.075566898380	226.352126677158	1094.910052667309	856.470816776298	188.092297512798	1171.269634015499	1120.297664815953	827.963314280201	1372.603134974610	964.850309685037	785.606291116308	
108	56.948571428571	904.971671787402	1023.627300274114	536.888981630758	1093.638088509104	1441.261640201485	337.904444180827	1208.657725792463	1364.628970267454	486.236497804789	1152.800582551127	1444.446035942588	668.161920273850	1110.954846953845	1503.884144067360	492.952969474483	1141.099527832238	947.082791570057	629.596349127049	1099.654566485336	973.436542307624	358.447905110211	1156.293210899153	740.873985428957	596.548974927153	1065.480851665633	638.816398890473	659.359872062188	1132.222673075193	580.796154969344	575.774032762894	1121.770152993028	495.258742871222	580.063005175136	1178.122174931541	795.556749587620	371.796953572063	1126.029698174153	668.272506840857	293.506760909078	1235.604311333771	608.534834305251	340.259656533724	1255.791780064306	529.857553920161	330.706543556864	1214.326408929479	454.579763928178	327.610678726490	1099.217840695692	361.513908224319	285.641755137749	1143.855118764724	237.494443111587	337.222253705080	1088.042796057329	409.060008528082	584.061729002615	1009.185851162678	309.752059328016	644.712606192651	1042.505687700790	213.746633034305	576.755809239129	892.334539601589	58.455300168703	546.587222407635	1069.379499325838	99.652619611486	575.570015200967	978.959941463464	42.729307891953	615.754412965287	1185.872384133137	37.935723050998	594.212168984092	1001.357085623224	98.642001876913	383.938484697632	1066.166083345778	84.062337300796	298.172238906509	1158.604529831058	135.652337053662	314.394561107772	1273.710305176604	67.895160713884	276.421180269491	994.381417279139	1100.832948273981	227.836794647251	1091.019892458534	858.143772054958	188.801029192486	1178.758061355377	1118.989478410786	828.166001915130	1380.129297714873	963.762049646087	784.171277707916	
109	56.962857142857	904.231926521792	1023.677621513093	537.439236573888	1092.906566154821	1441.772456337297	339.843447689299	1208.548552151842	1364.113914330746	487.189847728346	1153.799597302740	1443.086409974682	669.850166214197	1110.723125762842	1503.567471801537	495.305565574992	1140.564080100595	946.448770202128	628.981770701376	1098.213540468589	973.308192237783	358.058672260388	1153.464660379168	740.047392786735	595.690612268508	1062.241819589669	638.528823582890	659.220846048488	1127.969412634994	580.054146080123	575.408609335891	1116.845520383485	494.857777067124	579.877126052623	1175.153017159643	794.625680634107	371.185488756480	1122.779497822833	667.303198948245	293.154163412042	1231.505997703672	607.284827406256	341.341741529974	1252.902657844459	531.016926338994	331.902017627000	1215.938991633717	455.744068296597	327.904440740802	1108.092073518699	355.163528069160	284.166523368728	1161.104053088563	233.970401871341	335.464365029383	1083.012866013271	408.727220173918	583.923325783164	1003.927034351460	309.602770585547	644.581483303208	1037.007814304109	213.535840410944	576.635223002549	886.600554576716	58.279077288586	546.509882596240	1063.553465904660	99.506268511342	575.365743458632	973.196213429078	42.674363440114	615.709061342334	1180.098490835555	37.919485665040	594.274996962156	1028.374339833663	85.131726967482	380.224606610791	1095.067293921122	75.172921167946	295.168340316503	1183.690371707628	132.984635837763	312.372931277470	1303.718271648564	73.234200588493	275.707646537682	990.992147124674	1102.372402864129	229.087802580459	1087.349817738005	859.646443166976	189.145179029780	1185.811176239002	1117.488501234248	828.118567471168	1387.082194155365	962.328568537096	782.528986151902	
